<svg xmlns="http://www.w3.org/2000/svg" width="249" height="249" fill="none"><path fill="#4A4A4A" fill-rule="evenodd" d="M248 124.88c0 4.29-.21 8.53-.64 12.7V249H.63V137.43a125.24 125.24 0 0 1 0-25.1V1.61H111.4a125.6 125.6 0 0 1 25.2 0H247.37v110.56c.43 4.17.64 8.41.64 12.7Zm-2.14-60.13v37.07a123 123 0 0 0-13.41-37.07h13.41Zm0 47.5a121.5 121.5 0 0 0-15.13-47.5h-44.2v59.5h59.33v-12Zm0-49.63h-14.63a124.55 124.55 0 0 0-44.7-44.75V3.13h59.33v59.5Zm-16.37 0a123.07 123.07 0 0 0-42.96-43v43h42.96Zm-45.1-59.5v13.54a123.24 123.24 0 0 0-37.36-13.53h37.37Zm0 15.26a121.8 121.8 0 0 0-47.86-15.25h-11.47v59.5h59.34V18.37ZM63.6 3.13h37.38A123.24 123.24 0 0 0 63.6 16.66V3.13Zm47.88 0A121.8 121.8 0 0 0 63.6 18.38v44.24h59.33V3.12h-11.46Zm-50 0v14.75a124.56 124.56 0 0 0-44.7 44.74H2.13V3.12h59.33Zm0 16.5a123.06 123.06 0 0 0-42.96 43h42.95v-43ZM2.12 64.74h13.43A122.97 122.97 0 0 0 2.13 101.9V64.75Zm0 61.63v10.98a121.52 121.52 0 0 0 15.64 48.51h43.7v-59.49H2.12Zm0 59.5v-38.02a122.99 122.99 0 0 0 13.92 38.01H2.13Zm0 2.13h15.15a124.56 124.56 0 0 0 44.18 43.87v15.62H2.13V188Zm61.46 59.49v-14.4a123.25 123.25 0 0 0 42.63 14.4H63.6Zm0-16.13a122 122 0 0 0 59.33 15.89V188H63.6v43.36Zm120.8 16.13h-42.61a123.24 123.24 0 0 0 42.62-14.4v14.4Zm-59.33-.24c21.57-.18 41.8-5.93 59.34-15.88v-43.37h-59.34v59.25Zm61.47.24v-15.61a124.56 124.56 0 0 0 44.2-43.88h15.13v59.49h-59.33Zm0-17.36a123.06 123.06 0 0 0 42.44-42.13h-42.44v42.13Zm0-44.27h43.7a121.52 121.52 0 0 0 15.63-48.36v-11.13h-59.33v59.5Zm59.33-37.93a122.98 122.98 0 0 1-13.9 37.93h13.9v-37.93ZM19.03 188a123.06 123.06 0 0 0 42.43 42.13V188H19.03ZM17.28 64.75A121.51 121.51 0 0 0 2.13 112.4v11.85h59.33v-59.5H17.28Zm46.31 0h59.33v3.63H76.91v55.87H63.59v-59.5Zm13.32 61.63H63.59v59.5h59.33v-59.5H96.97v55.43H76.91v-55.43Zm20.05-2.13h25.97v-35.8H96.95v35.8Zm28.1-55.88h48.64v55.88h10.7v-59.5h-59.34v3.63Zm48.63 58.01h10.7v59.5h-59.33v-59.5h28.58v55.43h20.05v-55.43Zm-20.05-2.13v-35.8h-28.58v35.8h28.58Z" clip-rule="evenodd" opacity=".13"/></svg>